Doctor Who 2005 6x07 A Good Man Goes To War HDTV XviD-FoV][ICM369

Airdate: June 04th 2011
 
http://www.imdb.com/title/tt0436992/

Amy Pond has been kidnapped and the Doctor is raising an army to rescue her. 

But as he and Rory race across galaxies, calling in long-held debts and 
solemnly given promises, his enemies are laying a carefully concealed trap. 

In her cell in Stormcage, River Song sadly acknowledges that the time has 
come at last – today will mark the Battle of Demons Run and the Doctor’s 
darkest hour. 

Both sides will make their sacrifices and River Song must finally reveal her 
most closely guarded secret to the Doctor.
__________

Format                           : AVI
Format/Info                      : Audio Video Interleave
File size                        : 550 MiB
Duration                         : 48mn 11s
Overall bit rate                 : 1 596 Kbps
Writing application              : transcode-1.1.5

Video
ID                               : 0
Format                           : MPEG-4 Visual
Format profile                   : Advanced Simple@L5
Format settings, BVOP            : 2
Format settings, QPel            : No
Format settings, GMC             : No warppoints
Format settings, Matrix          : Default (H.263)
Codec ID                         : XVID
Codec ID/Hint                    : XviD
Duration                         : 48mn 11s
Bit rate                         : 1 454 Kbps
Width                            : 624 pixels
Height                           : 352 pixels
Display aspect ratio             : 16:9
Frame rate                       : 25.000 fps
Color space                      : YUV
Chroma subsampling               : 4:2:0
Bit depth                        : 8 bits
Scan type                        : Progressive
Compression mode                 : Lossy
Bits/(Pixel*Frame)               : 0.265
Stream size                      : 501 MiB (91%)
Writing library                  : XviD 1.2.1 (UTC 2008-12-04)

Audio
ID                               : 1
Format                           : MPEG Audio
Format version                   : Version 1
Format profile                   : Layer 3
Mode                             : Joint stereo
Mode extension                   : MS Stereo
Codec ID                         : 55
Codec ID/Hint                    : MP3
Duration                         : 48mn 11s
Bit rate mode                    : Variable
Bit rate                         : 192 Kbps
Channel(s)                       : 2 channels
Sampling rate                    : 48.0 KHz
Compression mode                 : Lossy
Stream size                      : 44.4 MiB (8%)
Alignment                        : Aligned on interleaves
Interleave, duration             : 24 ms (0.60 video frame)
__________

Enjoy :D
